<?xml version="1.0" encoding="UTF-8"?>
<svg xmlns="http://www.w3.org/2000/svg" viewBox="0 0 67.07 58.03" aria-hidden="true">
  <g>
    <g>
      <polygon points="66.64 16.69 33.53 1.1 .43 16.69 0 15.78 33.53 0 33.75 .1 67.07 15.78 66.64 16.69"/>
      <g>
        <path d="M9.38,18.84h1.75l3.48,9.04h-1.79l-.71-1.86h-3.69l-.73,1.86h-1.79l3.49-9.04ZM10.26,21.24l-1.21,3.11h2.42l-1.21-3.11Z"/>
        <path d="M20.48,18.84h1.74v3.12l2.46-3.12h2.07l-3.15,4.04,3.46,5h-2.04l-2.79-4.02v4.02h-1.74v-9.04Z"/>
        <path d="M32.68,18.84h1.71v9.04h-1.71v-9.04Z"/>
        <path d="M40.21,18.84h1.85l1.69,3.25,1.68-3.25h1.82l-2.65,5.13v3.92h-1.73v-3.92l-2.66-5.13Z"/>
        <path d="M55.96,18.84h1.75l3.48,9.04h-1.79l-.71-1.86h-3.69l-.73,1.86h-1.79l3.49-9.04ZM56.84,21.24l-1.21,3.11h2.42l-1.21-3.11Z"/>
      </g>
      <g>
        <path d="M13.93,35.75l-1.21,1.15c-.82-.87-1.74-1.3-2.76-1.3-.86,0-1.59.29-2.18.88s-.89,1.32-.89,2.19c0,.6.13,1.14.4,1.6.26.47.63.83,1.11,1.1s1.01.4,1.6.4c.5,0,.96-.09,1.37-.28.41-.19.87-.53,1.36-1.02l1.17,1.22c-.67.65-1.3,1.11-1.89,1.36-.59.25-1.27.38-2.03.38-1.41,0-2.56-.45-3.45-1.34-.9-.89-1.34-2.04-1.34-3.43,0-.9.2-1.7.61-2.4.41-.7.99-1.26,1.75-1.69.76-.43,1.58-.64,2.46-.64.74,0,1.46.16,2.15.47.69.32,1.28.77,1.79,1.35Z"/>
        <path d="M17.18,34.16h1.75v3.41h3.02v-3.41h1.74v9.04h-1.74v-3.96h-3.02v3.96h-1.75v-9.04Z"/>
        <path d="M27.39,34.16h1.71v9.04h-1.71v-9.04Z"/>
        <path d="M32.79,34.16h1.75v3.41h3.02v-3.41h1.74v9.04h-1.74v-3.96h-3.02v3.96h-1.75v-9.04Z"/>
        <path d="M47.4,33.93c1.28,0,2.38.46,3.3,1.39.92.93,1.38,2.06,1.38,3.39s-.45,2.44-1.36,3.35-2.01,1.37-3.31,1.37-2.49-.47-3.38-1.41c-.89-.94-1.34-2.05-1.34-3.34,0-.86.21-1.66.62-2.38s1-1.3,1.72-1.72c.73-.42,1.52-.63,2.37-.63ZM47.38,35.62c-.83,0-1.54.29-2.11.87s-.85,1.32-.85,2.22c0,1,.36,1.79,1.07,2.37.56.45,1.2.68,1.92.68.82,0,1.51-.29,2.09-.88.57-.59.86-1.32.86-2.18s-.29-1.59-.87-2.18c-.58-.6-1.28-.89-2.11-.89Z"/>
        <path d="M55.4,34.16h1.73v5.85c0,.5.04.86.13,1.07.09.21.23.37.43.5.21.13.45.19.74.19.3,0,.56-.07.78-.21.22-.14.37-.32.45-.53s.13-.62.13-1.23v-5.63h1.73v5.39c0,.91-.05,1.54-.16,1.89s-.3.69-.59,1.02-.62.57-1,.73c-.38.16-.82.24-1.31.24-.65,0-1.23-.15-1.71-.45-.48-.3-.83-.68-1.04-1.13-.21-.45-.31-1.22-.31-2.29v-5.39Z"/>
      </g>
      <g>
        <path d="M10.86,49.99l-1.27,1.12c-.44-.62-.9-.93-1.37-.93-.22,0-.41.06-.55.18-.15.12-.21.26-.21.41s.05.29.15.43c.14.18.56.57,1.26,1.16.65.55,1.05.89,1.19,1.04.35.35.6.69.74,1.01s.22.67.22,1.05c0,.74-.25,1.35-.77,1.84s-1.18.73-2.01.73c-.64,0-1.21-.16-1.68-.47-.48-.32-.89-.82-1.23-1.49l1.45-.87c.43.8.94,1.2,1.5,1.2.29,0,.54-.09.74-.26s.3-.37.3-.6c0-.21-.08-.41-.23-.62s-.48-.52-1-.94c-.99-.8-1.62-1.42-1.91-1.86-.29-.43-.43-.87-.43-1.3,0-.63.24-1.17.72-1.62.48-.44,1.07-.67,1.77-.67.45,0,.88.1,1.29.31.41.21.85.59,1.32,1.14Z"/>
        <path d="M19.96,48.53c1.28,0,2.38.46,3.3,1.39.92.93,1.38,2.06,1.38,3.39s-.45,2.44-1.36,3.35-2.01,1.37-3.31,1.37-2.49-.47-3.38-1.41c-.89-.94-1.34-2.05-1.34-3.34,0-.86.21-1.66.62-2.38s1-1.3,1.72-1.72c.73-.42,1.52-.63,2.37-.63ZM19.94,50.21c-.83,0-1.54.29-2.11.87s-.85,1.32-.85,2.22c0,1,.36,1.79,1.07,2.37.56.45,1.2.68,1.92.68.82,0,1.51-.29,2.09-.88.57-.59.86-1.32.86-2.18s-.29-1.59-.87-2.18c-.58-.6-1.28-.89-2.11-.89Z"/>
        <path d="M29.22,48.75h1.73v5.85c0,.5.04.86.13,1.07.09.21.23.37.43.5.21.13.45.19.74.19.3,0,.56-.07.78-.21.22-.14.37-.32.45-.53s.13-.62.13-1.23v-5.63h1.73v5.39c0,.91-.05,1.54-.16,1.89s-.3.69-.59,1.02-.62.57-1,.73c-.38.16-.82.24-1.31.24-.65,0-1.23-.15-1.71-.45-.48-.3-.83-.68-1.04-1.13-.21-.45-.31-1.22-.31-2.29v-5.39Z"/>
        <path d="M45.1,49.99l-1.27,1.12c-.44-.62-.9-.93-1.37-.93-.22,0-.41.06-.55.18-.15.12-.21.26-.21.41s.05.29.15.43c.14.18.56.57,1.26,1.16.65.55,1.05.89,1.19,1.04.35.35.6.69.74,1.01s.22.67.22,1.05c0,.74-.25,1.35-.77,1.84s-1.18.73-2.01.73c-.64,0-1.21-.16-1.68-.47-.48-.32-.89-.82-1.23-1.49l1.45-.87c.43.8.94,1.2,1.5,1.2.29,0,.54-.09.74-.26s.3-.37.3-.6c0-.21-.08-.41-.23-.62s-.48-.52-1-.94c-.99-.8-1.62-1.42-1.91-1.86-.29-.43-.43-.87-.43-1.3,0-.63.24-1.17.72-1.62.48-.44,1.07-.67,1.77-.67.45,0,.88.1,1.29.31.41.21.85.59,1.32,1.14Z"/>
        <path d="M49.93,48.75h4.94v1.68h-3.23v1.64h3.23v1.66h-3.23v2.38h3.23v1.69h-4.94v-9.04Z"/>
        <path d="M59.37,48.75h1.71v9.04h-1.71v-9.04Z"/>
      </g>
    </g>
  </g>
</svg>
